<svg enable-background="new 0 0 471.879 529.735" height="529.735" viewBox="0 0 471.879 529.735" width="471.879" xmlns="http://www.w3.org/2000/svg"><g fill="none" stroke="#3195c2" stroke-miterlimit="10"><path d="m3.344 204.022c.234-34.536 2.26-62.698 7.617-72.034 5.245-9.143 27.82-24.642 56.79-41.832l102.233-57.143c30.07-16.986 55.507-29.25 66.27-29.25 10.532 0 35.221 11.865 64.545 28.432l102.237 57.96c28.965 17.189 51.544 32.689 56.787 41.833 5.355 9.336 7.382 37.498 7.618 72.034v122.158c-.236 34.537-2.262 62.699-7.618 72.035-5.243 9.141-27.822 24.641-56.787 41.83l-102.162 56.439c-30.067 16.988-55.51 29.25-66.27 29.25-10.535 0-35.217-11.859-64.545-28.434l-102.309-57.255c-28.968-17.189-51.544-32.689-56.788-41.83-5.356-9.338-7.383-37.5-7.617-72.037v-122.158z" stroke-width="5"/><path d="m228.592 187.08h-55.607s-59.94.72-59.94 49.83 51.997 49.831 59.94 49.831 54.163-.724 54.163-.724zm-12.878-.224h70.772c44.774 0 36.83-36.848 54.523-36.848 17.694 0 15.528 15.38 15.528 15.38v71.55l-.122-.84v71.551s2.167 15.379-15.525 15.379-9.75-36.848-54.523-36.848h-70.773m-72.219-3.773v68.787s.542 23.289 23.29 23.289h44.414s21.484-12.277 7.04-37.373c-14.443-25.096-24.193-23.471-24.193-50.552" stroke-width="6"/></g></svg>