<svg enable-background="new 0 0 471.879 529.735" height="529.735" viewBox="0 0 471.879 529.735" width="471.879" xmlns="http://www.w3.org/2000/svg"><path d="m4 204.26c.234-34.537 2.26-62.7 7.618-72.035 5.244-9.143 27.82-24.642 56.788-41.832l102.234-57.143c30.07-16.986 55.507-29.25 66.27-29.25 10.531 0 35.22 11.865 64.545 28.432l102.237 57.96c28.965 17.19 51.544 32.69 56.786 41.833 5.355 9.336 7.381 37.498 7.616 72.034v122.156c-.234 34.537-2.26 62.701-7.618 72.035-5.242 9.143-27.821 24.643-56.786 41.83l-102.161 56.439c-30.067 16.99-55.51 29.25-66.271 29.25-10.535 0-35.217-11.859-64.544-28.43l-102.31-57.26c-28.967-17.189-51.544-32.689-56.788-41.83-5.356-9.333-7.382-37.495-7.616-72.032z" fill="none" stroke="#3195c2" stroke-miterlimit="10" stroke-width="5"/><path d="m343.936 229.582c0 2.024-1.76 3.664-3.934 3.664h-206.25c-2.172 0-3.933-1.64-3.933-3.664v-41.442c0-2.025 1.76-3.665 3.933-3.665h206.25c2.172 0 3.934 1.64 3.934 3.664zm-199.284-45.824 17.23-35.796c0-1.65 1.516-2.987 3.388-2.987h143.214c1.873 0 3.391 1.337 3.391 2.987l17.229 35.796m-7.227 51.102-20 149.668c0 2.209-1.79 4-4 4h-123.667c-2.21 0-4-1.791-4-4l-20-149.668m4 34h163.667m-156 56h148.333" fill="none" stroke="#3195c2" stroke-miterlimit="10" stroke-width="5"/><path d="m210.127 143.86h53.5v11.75h-53.5z" fill="#3195c2"/></svg>