<svg enable-background="new 0 0 471.879 529.735" height="529.735" viewBox="0 0 471.879 529.735" width="471.879" xmlns="http://www.w3.org/2000/svg"><path d="m4 204.023c.234-34.536 2.26-62.698 7.618-72.034 5.244-9.145 27.82-24.643 56.788-41.833l102.234-57.142c30.07-16.986 55.507-29.25 66.27-29.25 10.531 0 35.22 11.865 64.545 28.432l102.237 57.96c28.965 17.19 51.544 32.69 56.786 41.833 5.355 9.335 7.381 37.497 7.616 72.033v122.158c-.234 34.537-2.26 62.699-7.618 72.035-5.242 9.141-27.821 24.641-56.786 41.83l-102.163 56.439c-30.067 16.988-55.51 29.25-66.271 29.25-10.535 0-35.217-11.859-64.544-28.434l-102.31-57.258c-28.967-17.188-51.544-32.688-56.788-41.83-5.354-9.333-7.38-37.495-7.614-72.032zm80.145 99.583h305.048" fill="none" stroke="#3195c2" stroke-miterlimit="10" stroke-width="5"/><circle cx="236.669" cy="323.791" fill="#3195c2" r="5.626"/><g stroke-miterlimit="10"><path d="m266.705 344.493s-1.166 24.375 0 32.391c1.297 8.92 7.58 25.496 25.498 25.496h-111.465c17.917 0 24.198-16.576 25.497-25.498 1.166-8.014 0-32.389 0-32.389" fill="none" stroke="#3195c2" stroke-width="6"/><path d="m388.902 335.084c0 5.094-4.283 9.223-9.572 9.223h-285.325c-5.284 0-9.57-4.131-9.57-9.223v-182.2c0-5.093 4.286-9.226 9.57-9.226h285.325c5.29 0 9.572 4.133 9.572 9.226z" fill="none" stroke="#83c3a8" stroke-width="5"/><path d="m388.902 335.084c0 5.094-4.283 9.223-9.572 9.223h-285.325c-5.284 0-9.57-4.131-9.57-9.223v-182.2c0-5.093 4.286-9.226 9.57-9.226h285.325c5.29 0 9.572 4.133 9.572 9.226z" fill="none" stroke="#3195c2" stroke-width="6"/><path d="m283.939 190.25h11.801v11.803h-11.801zm-105.532 0h11.804v11.803h-11.803zm111.372 11.963c0 29.33-23.777 53.11-53.109 53.11s-53.112-23.78-53.112-53.114m46.695 61.864h-46.037m105.287 0h-46.037" fill="none" stroke="#3195c2" stroke-width="5"/><path d="m283.939 190.25h11.801v11.803h-11.801zm-105.532 0h11.804v11.803h-11.803zm111.372 11.963c0 29.33-23.777 53.11-53.109 53.11s-53.112-23.78-53.112-53.114" fill="none" stroke="#3195c2" stroke-width="5"/><path d="m242.844 263.598c0 3.41-2.765 6.174-6.175 6.174-3.412 0-6.176-2.764-6.176-6.172 0-3.412 2.764-6.178 6.175-6.178 3.407 0 6.174 2.766 6.174 6.176zm-59.104-.002c.002 3.412-2.763 6.176-6.176 6.176-3.41 0-6.175-2.764-6.175-6.176 0-3.408 2.764-6.174 6.174-6.174 3.413 0 6.175 2.764 6.175 6.174zm117.81.004c0 3.41-2.764 6.174-6.174 6.172-3.41 0-6.175-2.764-6.175-6.174s2.766-6.176 6.173-6.176c3.414 0 6.178 2.766 6.178 6.178z" fill="none" stroke="#3195c2" stroke-width="5"/><path d="m4-401.71c.234-34.537 2.26-62.7 7.618-72.035 5.244-9.143 27.82-24.642 56.788-41.832l102.234-57.143c30.07-16.986 55.507-29.25 66.27-29.25 10.531 0 35.22 11.865 64.545 28.432l102.237 57.96c28.965 17.19 51.544 32.69 56.786 41.833 5.355 9.336 7.381 37.498 7.616 72.034v122.156c-.234 34.537-2.26 62.7-7.618 72.035-5.242 9.142-27.821 24.642-56.786 41.83l-102.161 56.44c-30.067 16.99-55.509 29.25-66.269 29.25-10.535 0-35.217-11.86-64.544-28.43l-102.31-57.26c-28.967-17.188-51.544-32.688-56.788-41.83-5.358-9.333-7.384-37.496-7.618-72.033z" fill="none" stroke="#3d98d3" stroke-width="5"/><path d="m4-401.71c.234-34.537 2.26-62.7 7.618-72.035 5.244-9.143 27.82-24.642 56.788-41.832l102.234-57.143c30.07-16.986 55.507-29.25 66.27-29.25 10.531 0 35.22 11.865 64.545 28.432l102.237 57.96c28.965 17.19 51.544 32.69 56.786 41.833 5.355 9.336 7.381 37.498 7.616 72.034v122.156c-.234 34.537-2.26 62.7-7.618 72.035-5.242 9.142-27.821 24.642-56.786 41.83l-102.161 56.44c-30.067 16.99-55.509 29.25-66.269 29.25-10.535 0-35.217-11.86-64.544-28.43l-102.31-57.26c-28.967-17.188-51.544-32.688-56.788-41.83-5.358-9.333-7.384-37.496-7.618-72.033z" fill="none" stroke="#3d98d3" stroke-width="6"/><path d="m84.145-302.128h305.048" fill="none" stroke="#3d98d3" stroke-width="5"/><circle cx="236.669" cy="-281.944" fill="#3d98d3" r="5.626" stroke="#3d98d3"/><path d="m266.705-261.24s-1.166 24.374 0 32.388c1.297 8.92 7.58 25.498 25.498 25.498h-111.465c17.917 0 24.198-16.577 25.497-25.498 1.166-8.014 0-32.39 0-32.39" fill="none" stroke="#3d98d3" stroke-width="6"/><path d="m388.902-270.65c0 5.095-4.283 9.224-9.572 9.224h-285.325c-5.284 0-9.57-4.13-9.57-9.223v-182.2c0-5.092 4.286-9.225 9.57-9.225h285.325c5.29 0 9.572 4.133 9.572 9.226v182.2z" fill="none" stroke="#3d98d3" stroke-width="5"/><path d="m96.252-369.776h85.586v55h-85.586zm-.332 0 85.666 55m-.334-54.334-84 53" fill="none" stroke="#3d98d3" stroke-width="3"/><path d="m194.252-369.776h85.586v55h-85.586zm-.332 0 85.666 55m-.334-54.334-84 53" fill="none" stroke="#3d98d3" stroke-width="3"/><path d="m292.252-369.776h85.586v55h-85.586zm-.332 0 85.666 55m-.334-54.334-84 53" fill="none" stroke="#3d98d3" stroke-width="3"/><path d="m234.253-448.443h144.333m-144.333 10.833h144.333m-144.333 10.833h144.333m-144.333 10.833h144.333m-144.333 10.834h144.333m-144.333 10.833h144.333m-144.333 10.833h144.333" fill="none" stroke="#3d98d3" stroke-width="3"/><path d="m96.252-449.443h127.668v66.333h-127.67zm126.25 1.083-125 64.5m.25-64.25 124.75 63.75" fill="none" stroke="#3d98d3" stroke-width="3"/><path d="m-556.667 203.877c.234-34.536 2.26-62.698 7.618-72.034 5.245-9.143 27.82-24.642 56.79-41.832l102.233-57.142c30.07-16.986 55.507-29.25 66.27-29.25 10.532 0 35.22 11.865 64.545 28.432l102.237 57.96c28.965 17.19 51.544 32.69 56.787 41.833 5.357 9.336 7.382 37.498 7.618 72.034v122.158c-.236 34.537-2.26 62.699-7.618 72.035-5.243 9.139-27.822 24.639-56.787 41.83l-102.162 56.439c-30.068 16.99-55.51 29.25-66.27 29.25-10.535 0-35.217-11.863-64.544-28.434l-102.31-57.256c-28.968-17.191-51.545-32.691-56.79-41.83-5.356-9.338-7.383-37.5-7.617-72.037z" fill="none" stroke="#3d98d3" stroke-width="5"/><path d="m-461.712 275.208h83.266v56.357h-83.266zm-.324 0 83.344 56.357m-.325-55.673-81.723 54.308" fill="none" stroke="#3d98d3" stroke-width="3"/><path d="m-366.37 275.208h83.267v56.357h-83.266zm-.322 0 83.344 56.357m-.324-55.673-81.724 54.308" fill="none" stroke="#3d98d3" stroke-width="3"/><path d="m-271.024 275.208h83.266v56.357h-83.266zm-.324 0 83.344 56.357m-.326-55.673-81.72 54.308" fill="none" stroke="#3d98d3" stroke-width="3"/><path d="m-271.024 345.737h83.266v38.609h-83.266zm-56.428-154.777h140.42m-140.42 11.1h140.42m-140.42 11.1h140.42m-275.933 133.778h181.36m-181.36 12.65h181.36m-181.36 11.743h181.36m-45.847-147.069h140.42m-140.42 11.101h140.42m-140.42 11.1h140.42m-140.42 11.1h140.42" fill="none" stroke="#3d98d3" stroke-width="3"/><path d="m-461.712 189.936h124.207v67.97h-124.207zm122.828 1.109-121.613 66.092m.244-65.835 121.37 65.323" fill="none" stroke="#3d98d3" stroke-width="3"/><circle cx="-461.24" cy="159.387" fill="#3d98d3" r="5.158" stroke="#3d98d3"/><circle cx="-442.905" cy="159.387" fill="#3d98d3" r="5.157" stroke="#3d98d3"/><circle cx="-424.57" cy="159.387" fill="#3d98d3" r="5.158" stroke="#3d98d3"/><path d="m-169.664 379.129c0 2.398-1.547 4.34-3.456 4.34h-302.42c-1.91 0-3.458-1.941-3.458-4.34v-227.929c0-2.396 1.548-4.34 3.457-4.34h302.42c1.91 0 3.456 1.943 3.456 4.34zm-309.91-206.222h309.334" fill="none" stroke="#3d98d3" stroke-width="5"/><path d="m578.457 203.877c.234-34.536 2.26-62.698 7.618-72.034 5.244-9.143 27.818-24.642 56.787-41.832l102.234-57.141c30.072-16.986 55.508-29.25 66.271-29.25 10.533 0 35.22 11.865 64.545 28.432l102.24 57.96c28.964 17.19 51.542 32.69 56.785 41.833 5.356 9.336 7.381 37.498 7.616 72.034v122.157c-.234 34.537-2.26 62.701-7.616 72.035-5.243 9.141-27.821 24.641-56.786 41.83l-102.164 56.439c-30.068 16.99-55.511 29.25-66.271 29.25-10.535 0-35.217-11.861-64.545-28.432l-102.31-57.258c-28.97-17.191-51.544-32.691-56.788-41.83-5.357-9.338-7.384-37.5-7.618-72.037z" fill="none" stroke="#3d98d3" stroke-width="5"/></g><path d="m781.477 229.504-42.723 19.53 42.5 19.53v9.433l-56.37-25.634v-6.658l56.593-25.634zm16.199 56.816-7.88-2.663 34.07-83.337 7.877 2.885zm43.278-66.248 56.37 25.634v6.658l-56.37 25.632v-9.433l42.5-19.53-42.5-19.53z" fill="#3c98d2"/><path d="m944.102 328.512c0 2.137-1.752 3.869-3.914 3.869h-260.754c-2.158 0-3.914-1.732-3.914-3.869v-169.804c0-2.137 1.755-3.87 3.914-3.87h260.754c2.162 0 3.914 1.733 3.914 3.87zm32.959 52.348c0 .621-1.75 1.125-3.914 1.125l-323.086-.625c-2.158 0-3.911-.502-3.911-1.123l29.372-47.775c0-.621 1.753-1.123 3.913-1.123h260.755c2.162 0 3.914.502 3.914 1.123l32.959 48.4z" fill="none" stroke="#3d98d3" stroke-miterlimit="10" stroke-width="6"/><path d="m956.975 351.19c0-.459-1.752-.83-3.914-.83h-81.5l3 7.033c0 3.107-1.789 5.629-4 5.629h-120c-2.208 0-4-2.521-4-5.629l3-7.033h-82c-2.158 0-3.911.371-3.911.83l-18.5 29c0 .461 1.753.832 3.913.832l323.087.461c2.161 0 3.913-.371 3.913-.832l-19.084-29.461z" fill="none" stroke="#3d98d3" stroke-miterlimit="10" stroke-width="5"/></svg>