<svg enable-background="new 0 0 471.879 529.735" height="529.735" viewBox="0 0 471.879 529.735" width="471.879" xmlns="http://www.w3.org/2000/svg"><g fill="none" stroke="#3195c2" stroke-miterlimit="10"><path d="m3.648 203.123c.234-34.536 2.26-62.698 7.617-72.034 5.244-9.144 27.82-24.643 56.788-41.833l102.234-57.143c30.07-16.986 55.507-29.25 66.27-29.25 10.532 0 35.221 11.865 64.545 28.432l102.237 57.96c28.964 17.19 51.543 32.69 56.786 41.833 5.357 9.335 7.382 37.497 7.618 72.033v122.159c-.236 34.537-2.26 62.701-7.618 72.035-5.243 9.141-27.822 24.641-56.787 41.83l-102.163 56.439c-30.067 16.99-55.51 29.25-66.27 29.25-10.535 0-35.217-11.861-64.545-28.432l-102.31-57.261c-28.968-17.188-51.544-32.688-56.788-41.826-5.356-9.338-7.383-37.498-7.617-72.035v-122.158z" stroke-width="5"/><path d="m345.883 296.813c-25.232-9.57-23.71-5.73-23.71-23.466 0-11.458 5.67-7.253 9.267-29.072 1.399-8.595 2.561-2.865 5.545-16.64 1.584-7.192-1.098-7.74-.73-11.154.307-3.412.61-6.52 1.221-13.53.729-8.776-7.07-31.693-34.984-31.693-27.916 0-35.719 22.917-34.986 31.694.551 7.07.914 10.118 1.221 13.53.306 3.415-2.315 3.963-.731 11.155 2.985 13.774 4.146 7.984 5.547 16.64 3.595 21.82 9.201 17.675 9.201 29.072 0 8.168 1.891 11.579-9.079 16.762 3.29 1.157 7.13 2.56 11.762 4.326 33.157 12.616 32.365 24.866 33.219 30.657.609 3.961.914 35.533 1.035 46.811h59.549s0-49.064-.914-54.795c-.677-4.51-6.711-10.485-32.433-20.297zm-55.628 84.09s0-8.594-.122-18.527c-.122-11.338-.427-24.381-1.035-28.281-.914-5.789-8.717-13.527-41.812-26.145-4.57-1.707-8.41-3.107-11.763-4.328-20.297-7.189-18.834-9.57-18.834-29.256 0-14.811 7.313-5.181 11.946-33.279 1.828-11.093 3.29-3.718 7.13-21.454 2.073-9.265-1.4-9.996-.975-14.445.427-4.45.853-8.41 1.584-17.492.978-11.276-9.08-40.897-45.163-40.897s-46.077 29.56-45.163 40.897c.73 9.08 1.158 13.043 1.646 17.492.427 4.45-3.048 5.12-.976 14.445 3.9 17.736 5.364 10.36 7.192 21.454 4.63 28.098 11.884 18.468 11.884 33.279 0 22.916 2.012 21.211-30.596 33.584-33.098 12.615-40.898 20.353-41.813 26.144-1.22 7.375-1.22 46.811-1.22 46.811h198.09z" stroke-width="6"/></g></svg>