<svg enable-background="new 0 0 471.879 529.735" height="529.735" viewBox="0 0 471.879 529.735" width="471.879" xmlns="http://www.w3.org/2000/svg"><g fill="none" stroke="#3195c2" stroke-miterlimit="10" stroke-width="5"><path d="m4 203.26c.234-34.537 2.26-62.7 7.618-72.035 5.244-9.143 27.82-24.642 56.788-41.832l102.234-57.143c30.07-16.986 55.507-29.25 66.27-29.25 10.531 0 35.22 11.865 64.545 28.432l102.237 57.96c28.965 17.19 51.544 32.69 56.786 41.833 5.355 9.336 7.381 37.498 7.616 72.034v122.156c-.234 34.537-2.26 62.701-7.618 72.035-5.242 9.143-27.821 24.643-56.786 41.83l-102.161 56.439c-30.067 16.99-55.51 29.25-66.271 29.25-10.535 0-35.217-11.859-64.544-28.43l-102.31-57.26c-28.967-17.189-51.544-32.689-56.788-41.83-5.356-9.333-7.382-37.495-7.616-72.032z"/><path d="m388.668 362.44c0 2.166-1.756 3.92-3.92 3.92h-297.491c-2.166 0-3.922-1.754-3.922-3.92v-190.16c0-2.165 1.756-3.92 3.92-3.92h297.49c2.166 0 3.922 1.755 3.922 3.92zm-302.416-191.08s96.847 101.689 140.5 123.5c1.877.938 6.235 2.002 8.333 2 2.058-.002 6.325-1.085 8.167-2 44.498-22.113 144-125 144-125m-206 93.5-97 102.5m207-102.5 97 102.5"/></g></svg>