<svg enable-background="new 0 0 471.879 529.735" height="529.735" viewBox="0 0 471.879 529.735" width="471.879" xmlns="http://www.w3.org/2000/svg"><g stroke="#3195c2" stroke-miterlimit="10" stroke-width="6"><path d="m3.6 203.852c.234-34.536 2.26-62.698 7.617-72.034 5.244-9.143 27.82-24.642 56.788-41.832l102.235-57.143c30.07-16.986 55.507-29.25 66.27-29.25 10.532 0 35.221 11.865 64.545 28.432l102.237 57.96c28.966 17.19 51.544 32.69 56.788 41.833 5.355 9.336 7.38 37.498 7.617 72.034v122.158c-.236 34.535-2.262 62.697-7.617 72.033-5.244 9.141-27.822 24.641-56.788 41.83l-102.162 56.442c-30.067 16.988-55.51 29.25-66.27 29.25-10.535 0-35.217-11.861-64.545-28.434l-102.31-57.26c-28.968-17.189-51.544-32.689-56.788-41.83-5.356-9.334-7.383-37.496-7.617-72.033z" fill="none"/><path d="m260.889 140.96h82.5v248.5h-82.5z" fill="#fff"/><path d="m261.389 356.959h28m-28-30h28m-28-30h28m-28-30h28m-28-29.999h28m-28-30h28m-28-30h28" fill="#fff"/><path d="m214.96 191.09v171.463l.05 1.818c0 23.787-19.282 26.104-43.067 26.104s-43.067-2.316-43.067-26.104l.05-1.816v-171.465m86.928 2.455-42.644-54.862-45.3 54.848" fill="#fff"/></g><path d="m179.618 143.833h-14.138l-9.693 12.925h33.525z" fill="#3195c2"/><path d="m129.834 334.987h85.732m-85.732 16.963h85.732m-68.313-140.562v120.417m24.387-130.413v130.413m24.387-120.417v120.417m-24.084-142.228c0 10.958-8.884 19.842-19.842 19.842s-19.842-8.885-19.842-19.843m79.369.001c0 10.958-8.885 19.842-19.843 19.842s-19.843-8.885-19.843-19.843" fill="#fff" stroke="#3195c2" stroke-miterlimit="10" stroke-width="6"/></svg>