<svg enable-background="new 0 0 471.879 529.735" height="529.735" viewBox="0 0 471.879 529.735" width="471.879" xmlns="http://www.w3.org/2000/svg"><g stroke="#3195c2" stroke-miterlimit="10"><g fill="none"><path d="m4.304 203.877c.234-34.536 2.26-62.698 7.618-72.034 5.244-9.143 27.82-24.643 56.788-41.833l102.234-57.14c30.07-16.986 55.507-29.25 66.27-29.25 10.532 0 35.22 11.865 64.545 28.432l102.236 57.96c28.965 17.19 51.543 32.69 56.788 41.833 5.355 9.336 7.38 37.498 7.617 72.034v122.157c-.235 34.537-2.262 62.701-7.616 72.035-5.244 9.141-27.822 24.641-56.788 41.83l-102.162 56.439c-30.068 16.99-55.51 29.25-66.27 29.25-10.535 0-35.217-11.861-64.544-28.432l-102.31-57.257c-28.967-17.191-51.544-32.691-56.788-41.83-5.357-9.338-7.384-37.5-7.618-72.037z" stroke-width="5"/><path d="m99.247 285.208h80.028v56.357h-80.028zm-.311 0 80.103 56.357m-.312-55.673-78.545 54.308" stroke-width="3"/><path d="m195.882 285.208h80.028v56.357h-80.028zm-.31 0 80.102 56.357m-.313-55.673-78.544 54.308" stroke-width="3"/><path d="m292.52 285.208h80.026v56.357h-80.026zm-.312 0 80.103 56.357m-.313-55.673-78.545 54.308" stroke-width="3"/><path d="m289.947 364.737h83.266v17.609h-83.266zm-45.222-170.777h129.215m-129.215 16.9h129.215m-129.215 16.902h129.215m-275.934 138.176h181.362m-181.362 17.65h181.362m-34.643-138.925h129.215m-129.215 16.9h129.215" stroke-width="3"/><path d="m99.26 193.936h124.206v67.97h-124.206zm122.827 1.109-121.612 66.092m.245-65.835 121.367 65.323" stroke-width="3"/></g><circle cx="99.731" cy="159.387" fill="#3195c2" r="5.158"/><circle cx="118.067" cy="159.387" fill="#3195c2" r="5.157"/><circle cx="136.402" cy="159.387" fill="#3195c2" r="5.158"/><path d="m391.309 379.129c0 2.398-1.547 4.34-3.457 4.34h-302.42c-1.91 0-3.458-1.941-3.458-4.34v-227.929c0-2.396 1.548-4.34 3.457-4.34h302.422c1.91 0 3.455 1.943 3.455 4.34v227.929zm-309.912-206.222h309.333" fill="none" stroke-width="5"/></g></svg>