<svg enable-background="new 0 0 471.879 529.735" height="529.735" viewBox="0 0 471.879 529.735" width="471.879" xmlns="http://www.w3.org/2000/svg"><g stroke="#3195c2" stroke-miterlimit="10"><path d="m3.344 204.022c.234-34.536 2.26-62.698 7.617-72.034 5.245-9.143 27.82-24.642 56.79-41.832l102.233-57.143c30.07-16.986 55.507-29.25 66.27-29.25 10.532 0 35.221 11.865 64.545 28.432l102.237 57.96c28.965 17.189 51.544 32.689 56.787 41.833 5.355 9.336 7.382 37.498 7.618 72.034v122.158c-.236 34.537-2.262 62.699-7.618 72.035-5.243 9.141-27.822 24.641-56.787 41.83l-102.162 56.439c-30.067 16.988-55.51 29.25-66.27 29.25-10.535 0-35.217-11.859-64.545-28.434l-102.309-57.255c-28.968-17.189-51.544-32.689-56.788-41.83-5.356-9.338-7.383-37.5-7.617-72.037v-122.158z" fill="none" stroke-width="5"/><path d="m351.814 362.809v-198.374" fill="none" stroke-width="5"/><circle cx="369.814" cy="263.623" fill="#3195c2" r="5.626"/><g fill="none"><path d="m388.047 354.723c0 5.096-4.283 9.225-9.572 9.225h-285.325c-5.284 0-9.57-4.131-9.57-9.225v-182.199c0-5.093 4.286-9.226 9.57-9.226h285.325c5.291 0 9.572 4.133 9.572 9.226z" stroke-width="5"/><path d="m388.047 354.723c0 5.096-4.283 9.225-9.572 9.225h-285.325c-5.284 0-9.57-4.131-9.57-9.225v-182.199c0-5.093 4.286-9.226 9.57-9.226h285.325c5.291 0 9.572 4.133 9.572 9.226z" stroke-width="6"/><path d="m95.814 175.29h68v173.71h-68zm89-.166h145.5v56h-145.5zm-.52 103.266c0-7.511 6.08-13.606 13.58-13.606 7.497 0 13.578 6.095 13.578 13.607 0 7.514-6.08 13.609-13.58 13.609-7.497 0-13.578-6.095-13.578-13.61zm59.485 0c0-7.511 6.08-13.606 13.58-13.606s13.578 6.095 13.578 13.607c0 7.514-6.08 13.609-13.578 13.609s-13.58-6.095-13.58-13.61zm59.487 0c0-7.511 6.082-13.606 13.58-13.606 7.496 0 13.577 6.095 13.577 13.607 0 7.514-6.08 13.609-13.577 13.609-7.498 0-13.58-6.095-13.58-13.61zm-120.911-30.433h150.44m-150.44 61.684h150.44m-150.44 19.334h150.44m-150.44 19.334h150.44" stroke-width="5"/><path d="m106.314 189.124h47m-47 17.928h47m-47 17.928h47m-47 17.93h47m-47 17.928h47m-47 17.929h47" stroke-width="5"/></g></g></svg>