<?xml version="1.0" encoding="iso-8859-1"?>
<!-- Generator: Adobe Illustrator 19.0.0, SVG Export Plug-In . SVG Version: 6.00 Build 0)  -->
<svg version="1.1" id="Capa_1" xmlns="http://www.w3.org/2000/svg" xmlns:xlink="http://www.w3.org/1999/xlink" x="0px" y="0px"
	 viewBox="0 0 480.009 480.009" style="enable-background:new 0 0 480.009 480.009;" xml:space="preserve">
<g>
	<g>
		<rect x="48" y="48.004" width="16" height="16"/>
	</g>
</g>
<g>
	<g>
		<rect x="80" y="48.004" width="160" height="16"/>
	</g>
</g>
<g>
	<g>
		<rect x="48" y="80.004" width="192" height="16"/>
	</g>
</g>
<g>
	<g>
		<rect x="48" y="112.004" width="256" height="16"/>
	</g>
</g>
<g>
	<g>
		<path d="M479.92,261.012L479.92,261.012c-2.015-31.181-28.925-54.825-60.106-52.81c-1.259,0.081-2.515,0.205-3.766,0.37
			c-3.64,0.521-7.216,1.417-10.672,2.672c-14.053,4.947-25.55,15.3-31.936,28.76H368v-153.2c0.001-6.366-2.506-12.476-6.976-17.008
			L298.4,7.068c-4.512-4.531-10.646-7.073-17.04-7.064H24c-13.255,0-24,10.745-24,24v432c0,13.255,10.745,24,24,24h320
			c13.255,0,24-10.745,24-24v-168h5.44c6.355,13.428,17.808,23.764,31.816,28.712c6.006,2.19,12.351,3.303,18.744,3.288
			c15.357-0.032,30.032-6.345,40.616-17.472C475.248,291.41,480.79,276.375,479.92,261.012z M352,456.004c0,4.418-3.582,8-8,8H24
			c-4.418,0-8-3.582-8-8v-432c0-4.418,3.582-8,8-8h256v56c0,13.255,10.745,24,24,24h32v-16h-32c-4.418,0-8-3.582-8-8V27.332
			l53.6,53.696c1.518,1.542,2.378,3.612,2.4,5.776v153.2H200c-13.255,0-24,10.745-24,24v48c0,4.418,3.582,8,8,8h32
			c4.418,0,8-3.582,8-8v-24h16v24c0,4.418,3.582,8,8,8h32c4.418,0,8-3.582,8-8v-24h64V456.004z M426.01,303.824
			c-17.607,0.892-33.722-9.849-39.674-26.444c-1.115-3.211-4.137-5.367-7.536-5.376H280c-4.418,0-8,3.582-8,8v24h-16v-24
			c0-4.418-3.582-8-8-8h-32c-4.418,0-8,3.582-8,8v24h-16v-40c0-4.418,3.582-8,8-8h178.8c3.405-0.002,6.435-2.16,7.552-5.376
			c4.013-11.388,12.989-20.332,24.392-24.304c2.457-0.903,5.001-1.546,7.592-1.92c22.235-2.824,42.55,12.911,45.375,35.146
			c0.097,0.762,0.172,1.527,0.225,2.294v0.008C465.053,283.916,448.073,302.707,426.01,303.824z"/>
	</g>
</g>
<g>
	<g>
		<path d="M424,240.004c-13.255,0-24,10.745-24,24c0,13.255,10.745,24,24,24s24-10.745,24-24
			C448,250.75,437.255,240.004,424,240.004z M424,272.004c-4.418,0-8-3.582-8-8s3.582-8,8-8s8,3.582,8,8
			S428.418,272.004,424,272.004z"/>
	</g>
</g>
<g>
	<g>
		<path d="M154.459,239.911c-9.276-19.462-28.9-31.871-50.459-31.907c-30.928,0.052-55.958,25.165-55.907,56.093
			c0.036,21.559,12.445,41.183,31.907,50.459v45.448c0,13.255,10.745,24,24,24s24-10.745,24-24v-45.448
			C155.919,301.25,167.765,267.83,154.459,239.911z M141.714,277.282c-4.027,11.395-12.991,20.359-24.386,24.386
			c-3.195,1.132-5.329,4.155-5.328,7.544v50.792c0,4.418-3.582,8-8,8s-8-3.582-8-8v-50.792c0.001-3.389-2.133-6.412-5.328-7.544
			c-20.829-7.361-31.747-30.213-24.386-51.042c7.361-20.829,30.213-31.747,51.042-24.386
			C138.157,233.601,149.075,256.453,141.714,277.282z"/>
	</g>
</g>
<g>
</g>
<g>
</g>
<g>
</g>
<g>
</g>
<g>
</g>
<g>
</g>
<g>
</g>
<g>
</g>
<g>
</g>
<g>
</g>
<g>
</g>
<g>
</g>
<g>
</g>
<g>
</g>
<g>
</g>
</svg>
